<svg width="419" height="45" viewBox="0 0 419 45" fill="none" xmlns="http://www.w3.org/2000/svg">
<g clip-path="url(#clip0_434_496)">
<path d="M75.889 0.0700684C62.8098 0.0700684 52.207 10.03 52.207 22.3156C52.207 34.6012 62.8098 44.5611 75.889 44.5611C88.9682 44.5611 99.5709 34.6019 99.5709 22.3156C99.5709 10.0293 88.9682 0.0700684 75.889 0.0700684ZM75.889 37.4156C68.2282 37.4156 62.0181 30.6246 62.0181 22.2482C62.0181 13.8717 68.2282 7.08075 75.889 7.08075C83.5498 7.08075 89.7598 13.871 89.7598 22.2482C89.7598 30.6253 83.5498 37.4115 75.889 37.4115V37.4156Z" fill="black"/>
<path d="M312.595 17.8854C314.837 17.8854 316.655 16.0746 316.655 13.8408C316.655 11.607 314.837 9.79614 312.595 9.79614C310.353 9.79614 308.535 11.607 308.535 13.8408C308.535 16.0746 310.353 17.8854 312.595 17.8854Z" fill="black"/>
<path d="M312.595 43.8715C314.837 43.8715 316.655 42.0607 316.655 39.8269C316.655 37.5931 314.837 35.7822 312.595 35.7822C310.353 35.7822 308.535 37.5931 308.535 39.8269C308.535 42.0607 310.353 43.8715 312.595 43.8715Z" fill="black"/>
<path d="M231.124 5.44076H234.553V0.72876H221.021L210.558 22.5301C210.558 22.5301 209.611 24.4782 207.94 24.4782C206.27 24.4782 205.316 22.5166 205.316 22.5166L194.736 0.72876H181.666V5.44076H184.53C184.889 5.44076 185.234 5.58282 185.487 5.83566C185.741 6.0885 185.884 6.43141 185.884 6.78897C185.884 6.80583 185.892 6.81256 185.895 6.82604L184.434 37.8586C184.422 38.207 184.275 38.537 184.023 38.7795C183.772 39.0219 183.436 39.1579 183.086 39.1589H180.988V43.8716H195.197V39.1589H193.283C193.268 39.1537 193.253 39.1503 193.238 39.1488C192.879 39.1488 192.535 39.0068 192.281 38.7539C192.027 38.5011 191.885 38.1582 191.885 37.8006C191.885 37.7939 191.881 37.7911 191.88 37.7844L192.603 22.4087C192.608 21.9228 192.772 21.4516 193.07 21.0672C193.369 20.6828 193.785 20.4064 194.256 20.2802C194.727 20.1541 195.227 20.185 195.679 20.3684C196.13 20.5518 196.509 20.8775 196.758 21.2958L206.751 38.6742C206.868 38.8859 207.039 39.0625 207.248 39.1855C207.457 39.3085 207.695 39.3734 207.937 39.3734C208.179 39.3734 208.417 39.3085 208.626 39.1855C208.835 39.0625 209.006 38.8859 209.123 38.6742L218.642 22.1289C218.87 21.7488 219.216 21.4536 219.629 21.2887C220.041 21.1238 220.497 21.0982 220.925 21.216C221.353 21.3338 221.731 21.5884 222 21.9407C222.269 22.2931 222.415 22.7236 222.415 23.1664C222.432 23.552 223.11 37.8053 223.11 37.8053V37.81C223.11 38.1676 222.968 38.5105 222.714 38.7634C222.46 39.0162 222.116 39.1582 221.757 39.1582H219.669V43.8709H234.555V39.1582H232.58C232.227 39.1583 231.888 39.0207 231.635 38.7749C231.382 38.529 231.236 38.1943 231.227 37.8424L229.766 6.78897C229.766 6.61153 229.801 6.43584 229.87 6.27196C229.938 6.10807 230.038 5.95923 230.164 5.83398C230.291 5.70872 230.44 5.60949 230.605 5.54202C230.77 5.47454 230.946 5.44014 231.124 5.44076Z" fill="black"/>
<path d="M162.23 5.44076H165.659V0.72876H152.126L141.664 22.5301C141.664 22.5301 140.716 24.4782 139.046 24.4782C137.375 24.4782 136.423 22.5166 136.423 22.5166L125.841 0.72876H112.772V5.44076H115.636C115.995 5.44076 116.339 5.58282 116.593 5.83566C116.847 6.0885 116.989 6.43141 116.989 6.78897C116.989 6.80583 116.997 6.81256 117 6.82604L115.54 37.8586C115.527 38.207 115.38 38.537 115.129 38.7795C114.877 39.0219 114.541 39.1579 114.191 39.1589H112.094V43.8716H126.303V39.1589H124.389C124.375 39.1537 124.36 39.1503 124.345 39.1488C123.986 39.1488 123.642 39.0068 123.388 38.7539C123.134 38.5011 122.991 38.1582 122.991 37.8006C122.991 37.7939 122.987 37.7911 122.987 37.7844L123.71 22.4087C123.714 21.9228 123.878 21.4516 124.177 21.0672C124.475 20.6828 124.892 20.4064 125.363 20.2802C125.834 20.1541 126.334 20.185 126.785 20.3684C127.237 20.5518 127.616 20.8775 127.865 21.2958L137.858 38.6742C137.974 38.8859 138.146 39.0625 138.355 39.1855C138.563 39.3085 138.801 39.3734 139.044 39.3734C139.286 39.3734 139.524 39.3085 139.733 39.1855C139.942 39.0625 140.113 38.8859 140.23 38.6742L149.743 22.131C149.971 21.7508 150.318 21.4556 150.73 21.2907C151.143 21.1258 151.598 21.1002 152.026 21.218C152.455 21.3358 152.832 21.5904 153.102 21.9428C153.371 22.2951 153.516 22.7257 153.516 23.1684C153.534 23.554 154.212 37.8074 154.212 37.8074V37.812C154.212 38.1696 154.069 38.5126 153.815 38.7654C153.562 39.0182 153.217 39.1603 152.859 39.1603H150.77V43.873H165.656V39.1603H163.685C163.332 39.1595 162.993 39.0215 162.741 38.7757C162.489 38.5299 162.343 38.1958 162.335 37.8444L160.873 6.79099C160.873 6.61366 160.908 6.43809 160.976 6.2743C161.045 6.11051 161.145 5.96172 161.271 5.83648C161.397 5.71125 161.546 5.612 161.711 5.54444C161.875 5.47689 162.052 5.44233 162.23 5.44278V5.44076Z" fill="black"/>
<path d="M278.226 0.72876V5.44076H280.357C280.716 5.44076 281.06 5.58282 281.314 5.83566C281.568 6.0885 281.711 6.43141 281.711 6.78897V27.3101C281.711 33.3838 278.264 37.9219 271.878 37.9219C265.493 37.9219 262.088 33.4681 262.088 27.3101V6.78897C262.088 6.43141 262.231 6.0885 262.485 5.83566C262.739 5.58282 263.083 5.44076 263.442 5.44076H265.798V0.72876H249.559V5.44076H251.939C252.298 5.44076 252.642 5.58282 252.896 5.83566C253.15 6.0885 253.292 6.43141 253.292 6.78897V27.331C253.292 37.1198 258.819 45.0001 271.877 45.0001C284.907 45.0001 290.501 37.0355 290.501 27.3944L290.505 6.76671C290.512 6.4136 290.658 6.07723 290.911 5.8299C291.164 5.58258 291.504 5.44407 291.859 5.44413H293.787V0.732134L278.226 0.72876Z" fill="black"/>
<path d="M373.49 22.3002C373.49 7.81565 363.015 0.863562 350.021 0.734808V0.72876H331.41V5.44076H333.686C334.045 5.44076 334.389 5.58282 334.643 5.83566C334.897 6.0885 335.04 6.43141 335.04 6.78897V37.4002C335.04 37.7578 334.897 38.1007 334.643 38.3535C334.389 38.6063 334.045 38.7484 333.686 38.7484H331.431V43.8716H349.775C362.883 43.8285 373.49 36.8764 373.49 22.3002ZM348.59 37.8201C347.774 37.8176 346.96 37.7511 346.155 37.6213C345.693 37.5311 345.277 37.2839 344.978 36.9218C344.679 36.5598 344.515 36.1056 344.515 35.6367V8.42437C344.515 8.12296 344.616 7.83019 344.803 7.59289C344.989 7.35559 345.25 7.18744 345.544 7.11525C346.547 6.91521 347.567 6.81427 348.589 6.81391C357.182 6.81391 364.151 10.7493 364.151 22.3184C364.151 31.6959 357.182 37.8228 348.589 37.8228L348.59 37.8201Z" fill="black"/>
<path d="M412.435 32.6167V35.938C412.434 36.4369 412.248 36.9177 411.911 37.2874C411.575 37.6571 411.113 37.8894 410.615 37.9395H399.358C398.82 37.9395 398.303 37.7264 397.923 37.3471C397.542 36.9679 397.328 36.4535 397.328 35.9171V27.0189C397.328 26.4826 397.542 25.9682 397.923 25.5889C398.303 25.2097 398.82 24.9966 399.358 24.9966H409.215V19.6038H399.313C398.784 19.5921 398.279 19.3745 397.908 18.9974C397.537 18.6202 397.329 18.1135 397.328 17.5855V8.68255C397.328 8.1462 397.542 7.6318 397.923 7.25255C398.303 6.87329 398.82 6.66023 399.358 6.66023H409.744C410.282 6.66023 410.798 6.87329 411.179 7.25255C411.56 7.6318 411.774 8.1462 411.774 8.68255V11.6594H418.337V0.72876H384.758V5.44076H386.502C386.861 5.44076 387.205 5.58282 387.459 5.83566C387.713 6.0885 387.855 6.43141 387.855 6.78897V37.8107C387.855 38.1683 387.713 38.5112 387.459 38.764C387.205 39.0169 386.861 39.1589 386.502 39.1589H384.758V43.8716H418.995V32.614L412.435 32.6167Z" fill="black"/>
<path d="M34.9791 30.9761C32.5081 35.4636 28.2554 38.4405 23.3357 38.4405C15.658 38.4405 9.43371 31.1972 9.43371 22.2619C9.43371 13.3266 15.6587 6.08334 23.3357 6.08334C28.9774 6.08334 32.8403 9.95204 34.5981 12.877H40.7277V0.603548H35.9913V2.10881C35.9909 2.44936 35.8603 2.77697 35.6259 3.02493C35.4672 3.18456 35.2746 3.30686 35.0623 3.38288C35.0332 3.39232 35.0041 3.40244 34.9737 3.41053C34.8753 3.43295 34.7753 3.44736 34.6746 3.45365C34.4692 3.45711 34.2655 3.4157 34.0778 3.33231C30.2022 0.941579 25.6848 -0.209777 21.133 0.0330419C16.5811 0.275861 12.213 1.90119 8.61575 4.69057C5.01854 7.47994 2.36469 11.2996 1.01098 15.6362C-0.342744 19.9727 -0.331443 24.6182 1.04336 28.9481C2.41816 33.278 5.09056 37.0849 8.7013 39.8568C12.312 42.6288 16.688 44.233 21.241 44.4539C25.794 44.6747 30.3057 43.5016 34.1697 41.0921C38.0336 38.6827 41.0646 35.1525 42.855 30.9761H34.9791Z" fill="black"/>
</g>
<defs>
<clipPath id="clip0_434_496">
<rect width="419" height="45" fill="white"/>
</clipPath>
</defs>
</svg>
