<svg width="221" height="108" viewBox="0 0 221 108" fill="none" xmlns="http://www.w3.org/2000/svg">
<g clip-path="url(#clip0_434_490)">
<path d="M220.558 64.43C219.969 63.9122 219.159 63.9862 218.643 64.504L218.569 64.578C215.328 68.2766 211.497 71.7533 207.298 74.0465C206.267 74.5643 205.162 75.0821 204.131 75.378C203.099 75.6739 201.994 75.8958 201.037 75.8218H200.889H200.668H200.521H200.447C200.3 75.8218 200.153 75.7479 200.005 75.6739C199.711 75.5259 199.342 75.23 198.974 74.9342C198.237 74.2684 197.574 73.3807 196.985 72.3451C195.733 70.3479 194.775 68.1287 193.891 65.7616C193.596 64.9479 193.302 64.2081 193.081 63.3944C193.596 62.6547 194.112 61.915 194.701 61.1753C197.722 56.8109 200.079 52.0027 201.847 46.9725C202.731 44.4574 203.468 41.9424 204.057 39.3533C204.646 36.7643 205.088 34.1753 205.383 31.5862C206.046 26.3342 206.267 21.0821 205.825 15.6821C205.604 13.0191 205.162 10.2821 204.278 7.54511C203.762 6.13963 203.173 4.73415 202.142 3.40265C201.626 2.73689 200.963 2.07114 200.153 1.47936C199.342 0.961551 198.385 0.517716 197.353 0.369771C195.364 -9.24878e-05 193.302 0.591688 191.828 1.55333C190.281 2.51498 189.176 3.69854 188.292 4.95607C186.524 7.47114 185.493 10.2081 184.83 12.8711C184.093 15.5342 183.651 18.1972 183.357 20.8602C183.062 23.5232 182.915 26.1862 182.915 28.7753C182.841 31.4383 182.915 34.0273 183.062 36.6163L183.136 38.5396C183.136 39.2054 183.209 39.8711 183.283 40.5369C183.357 41.8684 183.578 43.1999 183.725 44.5314C184.462 49.7835 185.567 54.8876 187.04 59.9917C187.408 61.3232 187.85 62.5807 188.292 63.9122C187.924 64.2821 187.556 64.7259 187.187 65.0958L186.524 65.8355C186.303 66.0574 186.156 66.2794 185.935 66.4273C185.493 66.8711 185.051 67.241 184.609 67.6109C183.725 68.3506 182.694 69.0903 181.662 69.7561C177.611 72.3451 172.97 74.6383 168.918 74.0465C167.96 73.8985 167.15 73.5287 166.561 73.0848C167.15 72.8629 167.666 72.567 168.181 72.2711C169.434 71.5314 170.539 70.5698 171.496 69.3862C172.454 68.2027 173.191 67.0191 173.78 65.6136C174.369 64.2081 174.738 62.5068 174.517 60.7314C174.296 58.9561 173.264 57.1807 171.791 56.0711C171.423 55.7753 170.981 55.5533 170.539 55.2574C170.318 55.1095 170.023 55.0355 169.728 54.9616C169.581 54.8876 169.36 54.8876 169.139 54.8876C168.918 54.8876 168.623 54.8136 168.181 54.8876L167.739 54.9616L167.445 55.0355C167.224 55.1095 167.076 55.1835 166.855 55.2574C166.413 55.4054 166.045 55.5533 165.603 55.7753C163.982 56.6629 162.804 57.9944 161.92 59.3999C161.109 60.8054 160.594 62.2848 160.299 63.7643C160.004 65.2437 159.857 66.6492 159.857 68.0547C159.857 69.4602 159.931 70.9396 160.446 72.4931C159.71 72.715 158.973 72.9369 158.236 73.1588C156.616 73.6027 154.921 73.8985 153.301 74.0465C151.68 74.1205 150.133 74.0465 148.807 73.6027C147.628 73.2328 146.597 72.4931 146.008 71.5314C145.418 70.5698 145.05 69.5342 144.903 68.2766V68.0547V67.7588C144.903 67.6109 144.903 67.389 144.903 67.241C144.903 66.8711 144.903 66.5013 144.903 66.1314C144.976 65.3917 145.05 64.578 145.197 63.8383C145.492 62.4328 145.934 60.9533 146.597 59.8437C146.744 60.0657 146.965 60.2136 147.26 60.2876C148.07 60.5835 148.881 60.1396 149.175 59.3259C149.396 58.7342 149.544 58.2903 149.544 57.6246C149.544 57.2547 149.617 56.8848 149.323 56.1451C149.175 55.7753 148.807 55.3314 148.218 55.0355C147.923 54.8876 147.628 54.8876 147.407 54.8136H147.26H147.186H147.113H146.965C145.86 54.8876 145.271 55.2574 144.682 55.6273C144.092 55.9972 143.724 56.441 143.282 56.8109C141.735 58.5122 140.777 60.2876 140.114 62.2848C139.746 63.2465 139.451 64.2821 139.304 65.3177C139.23 65.8355 139.157 66.3533 139.083 66.8711C139.083 67.167 139.009 67.389 139.009 67.6848C139.009 67.8328 139.009 67.9068 139.009 68.0547V68.5725C139.009 69.1643 139.083 69.6821 139.157 70.2739C137.757 71.3095 136.21 72.2711 134.663 73.0109C133.632 73.5287 132.6 73.8985 131.643 74.1205C130.685 74.3424 129.801 74.3424 129.359 74.1205C129.138 74.0465 128.917 73.8985 128.77 73.6766C128.696 73.6027 128.622 73.4547 128.549 73.3068C128.475 73.2328 128.475 73.1588 128.475 73.0848L128.401 72.8629L128.328 72.789C128.328 72.715 128.328 72.8629 128.328 72.8629C128.033 72.1232 127.886 71.0136 127.738 69.83C127.517 67.5369 127.517 65.0958 127.296 62.5068C127.149 61.1753 127.075 59.8437 126.486 58.2163C126.339 57.7725 126.118 57.3287 125.823 56.8848C125.528 56.367 125.013 55.8492 124.276 55.4794C124.129 55.4054 123.908 55.3314 123.687 55.2574L123.392 55.1835C123.245 55.1835 123.171 55.1095 123.024 55.1095H122.876H122.803H122.729H122.582H122.508C122.066 55.1095 121.698 55.2574 121.403 55.3314C120.887 55.5533 120.593 55.7753 120.372 55.9232C120.151 56.1451 120.003 56.2931 119.782 56.441C119.193 57.1068 118.825 57.6246 118.383 58.2163C118.014 58.8081 117.646 59.3259 117.351 59.9177C117.204 60.2136 116.983 60.5095 116.836 60.8054C116.909 60.0657 116.836 59.252 116.762 58.4383C116.688 57.9944 116.615 57.5506 116.467 57.1068C116.32 56.6629 116.173 56.1451 115.731 55.5533C115.51 55.2574 115.215 54.8876 114.699 54.5177C114.405 54.3698 114.036 54.1479 113.594 54.0739C113.152 53.9999 112.637 53.9999 112.195 54.1479C111.974 54.2218 111.826 54.2958 111.605 54.3698L111.384 54.5177C111.458 54.5177 111.237 54.5917 111.163 54.6657C110.869 54.8876 110.869 54.9616 110.795 55.0355C110.5 55.4054 110.427 55.6273 110.353 55.7753C110.206 56.1451 110.132 56.367 110.058 56.589C109.837 57.4766 109.764 58.2163 109.616 58.9561C109.543 59.6958 109.469 60.3616 109.395 61.1013C109.248 62.9506 109.101 64.7999 108.953 66.5753C107.038 68.2027 104.902 69.6821 102.765 70.8657C100.482 72.1232 98.1242 73.1588 95.8405 73.4547C94.6619 73.6027 93.4832 73.6766 92.4519 73.5287C91.4942 73.3807 90.6839 73.0848 90.1682 72.641C90.4629 72.567 90.7575 72.4191 90.9785 72.2711C91.7152 71.9013 92.3782 71.5314 93.0412 71.0876C94.3672 70.1999 95.4722 69.0163 96.4299 67.6848C96.6509 67.315 96.8719 67.0191 97.0929 66.6492C97.3139 66.2054 97.3875 66.1314 97.6822 65.6136C98.0505 64.8739 98.3452 64.0602 98.5662 63.1725C98.7872 62.2848 98.7872 61.2492 98.6399 60.1396C98.4189 59.03 97.9032 57.9944 97.1665 57.1807C96.4299 56.367 95.5459 55.7753 94.5882 55.3314C94.1462 55.1095 93.6305 54.9616 93.0412 54.8876C92.7465 54.8136 92.4519 54.8136 91.8625 54.8136C91.7889 54.8136 91.7889 54.8136 91.5679 54.8136L91.2732 54.8876L91.0522 54.9616L90.7575 55.0355C89.9472 55.2574 88.9159 55.6273 88.1055 56.1451C87.2215 56.6629 86.4849 57.3287 85.8955 58.0684C84.6432 59.5479 83.9802 61.1753 83.5382 62.7287C83.0962 64.2821 82.8752 65.8355 82.7279 67.389C82.7279 67.6848 82.6542 68.0547 82.6542 68.4246C82.1385 68.3506 81.6965 68.2766 81.2545 68.1287C79.5602 67.6109 78.3079 66.7232 77.4239 65.3177C76.5399 63.9862 76.0242 62.2109 75.5822 60.2136C75.4349 59.6958 75.3612 59.178 75.2139 58.5862C75.1402 58.2903 75.0665 57.9944 74.9192 57.6246C74.7719 57.2547 74.6245 56.8109 74.1089 56.2931C73.9615 56.1451 73.8142 55.9972 73.6669 55.8492L73.3722 55.6273C73.3722 55.6273 73.1512 55.4794 73.0039 55.4054C72.8565 55.3314 72.7092 55.2574 72.6355 55.1835C72.1199 54.9616 71.6042 54.8136 71.0149 54.8136C69.9099 54.8136 69.0259 55.1095 68.2892 55.4794C66.8895 56.2931 66.0055 57.2547 65.2689 58.2903C65.1952 58.3643 65.1952 58.3643 65.1215 58.4383C65.1215 57.9205 65.1215 57.4766 65.0479 56.8848C65.0479 56.7369 65.0479 56.515 64.9742 56.2931C64.9742 56.2191 64.9005 56.0711 64.9005 55.9232C64.8269 55.7753 64.8269 55.5533 64.6059 55.1835C64.4585 54.9616 64.3849 54.7396 63.8692 54.2958C62.9115 53.704 63.0589 53.9259 62.8379 53.852C62.4695 53.778 62.2485 53.778 62.0275 53.778C61.7329 53.778 61.5119 53.852 61.2909 53.9999C60.8489 54.2218 60.5542 54.4437 60.4069 54.5917C60.1859 54.7396 60.1122 54.8876 60.0385 55.0355C59.6702 55.4794 59.5965 55.7752 59.4492 55.9972L59.0809 56.7369C58.6389 57.6246 58.1969 58.4383 57.6812 59.3259C56.6499 60.9533 55.4712 62.5807 54.1452 64.0602C52.8192 65.6136 51.4195 66.9451 49.9462 68.2766C48.4729 69.6081 46.8522 70.7177 45.1579 71.8273C43.4635 72.8629 41.7692 73.8246 39.9275 74.5643C39.1909 74.8602 38.4542 75.0821 37.7175 75.378C36.3915 74.7122 35.0655 74.1205 33.8132 73.5287C33.6659 71.3835 33.5922 69.2383 33.5185 67.0931C33.4449 64.2821 33.3712 61.4711 33.3712 58.6602C37.6439 56.0711 41.6955 53.0383 45.3789 49.4876C48.4729 46.4547 51.2722 43.1259 53.5559 39.3533C55.8395 35.5807 57.5339 31.4383 58.4915 27.0739C59.4492 22.7095 59.5965 18.1232 58.4915 13.6848C57.9759 11.4657 57.1655 9.24648 55.9869 7.24922C54.8082 5.17799 53.1875 3.32867 50.9775 1.9232C50.0935 1.33141 48.8412 0.739634 47.5152 0.369771C46.1892 -9.24878e-05 44.7895 -0.0740651 43.3899 0.0738801C40.5905 0.443743 38.1595 1.99717 36.3915 4.0684C34.6972 6.06566 33.6659 8.28484 32.8555 10.3561C32.0452 12.5013 31.4559 14.6465 30.9402 16.7177C29.0249 25.2246 28.4355 33.6574 27.9935 42.0903C27.7725 46.3068 27.6989 50.5232 27.6252 54.6657C27.6252 55.8492 27.6252 57.0328 27.6252 58.2163C26.1519 59.178 24.6049 60.1396 23.0579 61.1013C22.4685 61.4711 22.2475 62.2109 22.5422 62.8027C22.8369 63.4684 23.6472 63.8383 24.3102 63.4684C25.4152 62.9506 26.5939 62.4328 27.6989 61.841C27.7725 63.6163 27.7725 65.4657 27.9199 67.241C27.9935 68.4985 28.0672 69.7561 28.1409 71.0136C26.0045 70.1999 23.9419 69.3862 21.8055 68.6465C17.8275 67.241 13.9232 65.8355 9.87153 64.652C8.8402 64.3561 7.80886 64.0602 6.77753 63.8383C6.26186 63.6903 5.7462 63.6164 5.15686 63.4684C4.56753 63.3944 4.05186 63.2465 3.38886 63.1725C3.24153 63.1725 3.02053 63.1725 2.79953 63.1725C2.6522 63.1725 2.50486 63.1725 2.35753 63.1725C2.28386 63.1725 2.13653 63.1725 2.06286 63.2465C1.91553 63.3205 1.84186 63.3205 1.5472 63.3944C1.3262 63.4684 1.03153 63.6163 0.663197 64.0602C0.294864 64.43 0.000197239 65.3177 0.0738639 65.8355C0.0738639 66.3533 0.442197 67.0191 0.368531 66.8711C0.368531 66.8711 0.589531 67.241 0.515864 67.167C0.589531 67.315 0.736864 67.4629 0.810531 67.6109C1.25253 68.1287 1.62086 68.5725 2.06286 69.0163C2.8732 69.83 3.7572 70.5698 4.6412 71.2355C8.1772 73.8985 11.9342 75.9698 15.9122 77.6711C17.9012 78.4848 19.9639 79.2246 22.0265 79.8164C23.0579 80.1122 24.1629 80.4081 25.1942 80.5561C26.2992 80.778 27.4779 80.9259 28.5829 80.9259C28.6565 80.9259 28.7302 80.9259 28.8039 80.9259C29.1722 84.7725 29.6879 88.6191 30.2772 92.4657C30.5719 94.5369 30.9402 96.6821 31.3822 98.7533C31.6032 99.789 31.8242 100.825 32.1189 101.934C32.4135 103.044 32.7082 104.079 33.2239 105.337C33.3712 105.633 33.5185 106.003 33.8869 106.52C34.1079 106.816 34.6235 107.556 35.8022 107.852C36.3179 108 36.9072 107.926 37.2755 107.852C37.6439 107.704 37.9385 107.556 38.1595 107.408C38.6015 107.112 38.8225 106.89 38.9699 106.668C39.1909 106.446 39.2645 106.299 39.4119 106.077C39.6329 105.707 39.8539 105.411 40.0012 105.115C40.5905 103.931 41.0325 102.896 41.4009 101.86C42.1375 99.789 42.7269 97.7177 43.2425 95.5725C43.7582 93.5013 44.2002 91.3561 44.4949 89.2109C44.6422 88.1013 44.7159 86.9917 44.7895 85.8821C44.8632 84.6985 44.8632 83.589 44.6422 82.1835L44.5685 81.8876L44.4949 81.5917V81.5177C44.3475 81.0739 44.4212 81.2958 44.4212 81.1479C44.3475 80.9999 44.3475 80.9259 44.2739 80.778C44.0529 80.3342 43.8319 79.9643 43.6109 79.6684C43.1689 79.0026 42.6532 78.5588 42.2112 78.115C42.1375 78.041 42.1375 78.041 42.0639 77.967C45.8945 76.1917 49.4305 73.8985 52.5982 71.2355C54.2925 69.83 55.8395 68.3506 57.3129 66.7972C58.2705 65.7616 59.1545 64.7259 60.0385 63.6903C59.8912 65.6136 59.7439 67.5369 59.5965 69.4602C59.4492 71.5314 59.3755 73.6766 59.3755 75.8958C59.3755 76.4876 59.3755 77.0054 59.4492 77.7451C59.4492 77.967 59.5229 78.1889 59.5965 78.4848C59.6702 78.6328 59.6702 78.7807 59.8175 79.1506C59.8912 79.2985 59.9649 79.5205 60.1859 79.7424C60.0385 79.8164 61.5119 80.778 61.2172 80.5561C62.0275 80.852 61.8802 80.778 62.3222 80.852C62.6169 80.852 62.9852 80.852 63.2799 80.778C63.8692 80.63 64.3849 80.2602 64.6059 80.0383C65.1215 79.5205 65.2689 79.1506 65.4162 78.8547C65.6372 78.3369 65.7109 77.967 65.7845 77.5972C65.8582 77.2273 65.9319 76.9314 65.9319 76.6355C66.0055 76.0437 66.0792 75.452 66.1529 74.9342C66.3739 72.789 66.4475 70.7177 66.6685 68.7944C66.7422 67.8328 66.8895 66.8711 67.1105 66.2054C67.4052 65.3177 67.6999 64.43 68.0682 63.5424C68.4365 62.7287 68.8785 61.915 69.3205 61.2492C69.7625 60.5835 70.3519 59.9917 70.7202 59.7698C70.7939 59.7698 70.7939 59.6958 70.8675 59.6958C70.8675 59.7698 70.9412 59.8437 70.9412 59.9177C71.0885 60.2876 71.2359 60.8054 71.3832 61.3232C71.9725 63.3205 72.6355 65.6876 74.1825 67.7588C74.9192 68.7944 75.9505 69.6821 77.0555 70.3479C78.1605 71.0136 79.3392 71.4574 80.5179 71.6794C81.4019 71.9013 82.2859 71.9753 83.1699 71.9753C83.2435 72.1232 83.2435 72.3451 83.3172 72.4931C83.6119 73.3807 83.9802 74.3424 84.5695 75.1561C85.1589 75.9698 85.8955 76.7835 86.7795 77.3753C88.4739 78.5588 90.3892 78.9287 92.0835 78.9287C93.7779 78.9287 95.3985 78.7068 96.8719 78.2629L97.4612 78.115L97.9769 77.967C98.3452 77.8191 98.7135 77.6711 99.0819 77.5972C99.8185 77.3013 100.482 77.0054 101.145 76.6355C102.471 75.9698 103.723 75.1561 104.902 74.3424C106.228 73.3807 107.554 72.3451 108.732 71.2355C108.659 73.4547 108.585 75.6739 108.511 77.8931L108.585 78.4109C108.659 79.5205 109.469 80.5561 110.574 80.9259C112.121 81.4437 113.742 80.5561 114.257 79.0027C115.731 74.3424 117.646 69.83 119.782 65.4657C120.298 64.3561 120.887 63.3205 121.477 62.2848C121.698 61.841 121.992 61.4711 122.213 61.1013C122.287 61.6191 122.361 62.2848 122.434 62.8766C122.582 65.1698 122.655 67.6848 122.95 70.3479C123.097 71.6794 123.318 73.0109 123.908 74.5643L123.981 74.7862L124.055 74.8602L124.129 75.0821C124.276 75.304 124.35 75.5259 124.497 75.6739C124.718 76.0437 125.013 76.4136 125.307 76.7835C125.97 77.5232 126.854 78.115 127.738 78.4109C128.622 78.7068 129.58 78.7807 130.39 78.7807C131.201 78.7068 132.011 78.5588 132.674 78.4109C134.074 77.967 135.326 77.3753 136.505 76.7095C137.904 75.8958 139.23 74.9342 140.409 73.8985C140.704 74.4164 141.072 74.8602 141.44 75.304C143.135 77.2273 145.418 78.3369 147.702 78.7068C149.912 79.0766 151.975 78.8547 153.964 78.4109C156.837 77.7451 159.415 76.6355 161.846 75.23C162.362 75.8958 162.951 76.4876 163.614 77.0054C165.087 78.115 166.782 78.6328 168.329 78.7807C169.876 78.9287 171.423 78.7807 172.822 78.5588C173.191 78.4848 173.559 78.4109 173.854 78.3369L174.369 78.1889L174.811 78.041C175.548 77.8191 176.211 77.5232 176.8 77.3013C179.379 76.1917 181.662 74.7862 183.799 73.1588C184.904 72.3451 185.935 71.5314 186.966 70.5698C187.482 70.1259 187.924 69.6081 188.44 69.0903C188.661 68.8684 188.882 68.5725 189.103 68.2766L189.545 67.7588C190.576 70.1259 191.681 72.4931 193.154 74.7862C193.965 75.9698 194.849 77.0794 196.027 78.1889C196.617 78.7068 197.353 79.2246 198.164 79.5944C198.606 79.8163 199.048 79.9643 199.563 80.0383C199.711 80.0383 199.784 80.1122 199.932 80.1122H200.153H200.3H200.521H200.816C202.436 80.1122 203.91 79.7424 205.236 79.2985C206.635 78.7807 207.888 78.1889 209.066 77.4492C211.424 75.9698 213.486 74.2684 215.328 72.4191C217.243 70.5698 218.938 68.5725 220.558 66.4273C221.148 65.7616 221.074 64.9479 220.558 64.43ZM34.0342 42.4602C34.2552 38.3177 34.5499 34.2492 34.9919 30.1807C35.4339 26.1122 36.0232 22.1177 36.9072 18.1972C37.3492 16.2739 37.8649 14.3506 38.5279 12.6492C39.1909 10.8739 40.0012 9.24648 41.0325 8.06292C41.2535 7.76703 41.5482 7.54511 41.7692 7.32319C41.9165 7.24922 41.9902 7.10128 42.1375 7.02731L42.2112 6.95333L42.3585 6.87936C42.5059 6.80539 42.5059 6.80539 42.5795 6.73141C43.1689 6.36155 43.8319 6.06566 44.4949 5.84374C45.1579 5.62183 45.8209 5.47388 46.5575 5.54785C47.2942 5.62183 48.0309 5.76977 48.6939 6.21361C50.0935 7.0273 51.2722 8.28484 52.2299 9.83826C53.1875 11.3917 53.8505 13.0931 54.2189 14.9424C55.0292 18.641 54.8819 22.5616 53.9979 26.3342C53.1139 30.1068 51.5669 33.7314 49.5042 37.1342C47.5152 40.5369 45.0105 43.6437 42.2112 46.5287C39.5592 49.3396 36.6125 51.8547 33.5185 54.2218C33.7395 50.1533 33.8132 46.3068 34.0342 42.4602ZM26.1519 76.1917C25.1942 75.9698 24.2365 75.7479 23.2789 75.5259C21.3635 75.0081 19.5219 74.2684 17.6802 73.5287C14.8809 72.3451 12.2289 70.8657 9.65053 69.2383C11.2712 69.6821 12.8919 70.1259 14.5862 70.5698C16.5752 71.1616 18.4905 71.7533 20.4795 72.4191C23.1315 73.3807 25.8572 74.4163 28.3619 75.5999C28.3619 75.8958 28.4355 76.2657 28.4355 76.5616C27.6989 76.4136 26.8885 76.3396 26.1519 76.1917ZM39.7065 85.6602C39.6329 86.6218 39.4855 87.5835 39.3382 88.5451C39.0435 90.4684 38.6015 92.4657 38.1595 94.389C37.7912 95.7944 37.4229 97.126 37.0545 98.4575C36.9809 98.2355 36.9809 97.9397 36.9072 97.7177C36.5389 95.7205 36.1705 93.7232 35.8759 91.652C35.3602 87.9533 34.9182 84.2547 34.5499 80.5561C35.2129 80.4081 35.9495 80.2602 36.6125 80.1122C36.6862 80.1862 36.7599 80.1862 36.8335 80.2602C37.6439 80.778 38.3069 81.3698 38.8962 81.9616C39.1909 82.2574 39.4119 82.5533 39.5592 82.7013C39.6329 82.7753 39.6329 82.8492 39.6329 82.8492V83.0711C39.7802 83.8109 39.7802 84.7725 39.7065 85.6602ZM60.6279 76.6355C60.6279 76.7095 60.6279 76.7095 60.6279 76.6355V76.6355ZM70.7939 59.3259C70.7202 59.252 70.7939 59.252 70.7939 59.3259V59.3259ZM88.9159 67.6848C89.0632 65.3177 89.5052 62.8766 90.4629 61.5451C90.6839 61.1753 90.9785 60.8794 91.2732 60.6574C91.5679 60.4355 91.8625 60.2876 92.3782 60.0657H92.4519C92.5255 60.0657 92.5992 60.0657 92.6729 60.1396C92.9675 60.2136 93.2622 60.4355 93.4832 60.5835C93.7042 60.7314 93.7779 60.9533 93.8515 61.2492C93.9252 61.5451 93.9989 61.915 93.9252 62.2848C93.8515 62.7287 93.7779 63.2465 93.5569 63.7643C93.4832 63.9122 93.2622 64.4301 93.1885 64.578C93.1149 64.7999 92.9675 65.0958 92.8202 65.3177C92.2309 66.2794 91.5679 67.241 90.7575 67.9807C90.3155 68.3506 89.8735 68.7205 89.3579 69.0163C89.2105 69.0903 89.0632 69.1643 88.9159 69.3122C88.9159 68.7944 88.9159 68.2766 88.9159 67.6848ZM111.9 58.2163C111.826 58.1424 111.9 58.1424 111.9 58.2163V58.2163ZM168.55 59.5479C168.623 59.5479 168.623 59.5479 168.55 59.5479C168.476 59.5479 168.476 59.5479 168.476 59.5479H168.55ZM165.087 68.2027C165.161 67.0191 165.308 65.9095 165.529 64.7999C165.971 62.6547 166.782 60.8054 168.034 59.9917C168.181 59.9177 168.329 59.7698 168.55 59.6958C168.623 59.6958 168.697 59.6218 168.771 59.6218C168.844 59.6218 168.918 59.6958 168.918 59.6958C169.507 60.0657 169.949 60.7314 170.097 61.3972C170.318 62.1369 170.17 63.0985 169.876 64.0602C169.581 65.0218 169.065 66.1314 168.476 67.0191C167.887 67.9068 167.15 68.7944 166.266 69.4602C165.898 69.7561 165.529 69.978 165.087 70.2739C165.014 69.6821 165.014 68.9424 165.087 68.2027ZM191.607 58.6602C190.281 53.852 189.25 48.8958 188.661 43.9396C188.513 42.6821 188.366 41.4985 188.292 40.241C188.219 39.6492 188.219 39.0574 188.219 38.3917L188.145 36.4684C188.071 33.9533 188.145 31.4383 188.219 28.9232C188.292 26.4081 188.513 23.8931 188.808 21.452C189.103 19.0109 189.545 16.5698 190.134 14.2766C190.797 11.9835 191.534 9.76429 192.712 8.06292C193.302 7.24922 193.965 6.5095 194.554 6.06566C195.217 5.62183 195.806 5.47388 196.322 5.54785C196.764 5.62183 197.28 5.84374 197.869 6.58347C198.385 7.24922 198.9 8.21087 199.269 9.24648C200.079 11.3177 200.521 13.7588 200.742 16.1259C201.258 21.0081 201.184 26.0383 200.668 30.9944C200.447 33.5095 200.079 35.9506 199.563 38.3917C199.121 40.8328 198.532 43.2739 197.795 45.641C196.396 50.3753 194.333 54.9616 191.681 59.178C191.681 59.178 191.681 59.252 191.607 59.252C191.681 59.178 191.607 58.9561 191.607 58.6602Z" fill="black"/>
</g>
<defs>
<clipPath id="clip0_434_490">
<rect width="221" height="108" fill="white"/>
</clipPath>
</defs>
</svg>
