<svg xmlns="http://www.w3.org/2000/svg" xmlns:xlink="http://www.w3.org/1999/xlink" width="130" height="130" viewBox="0 0 130 130"><defs><clipPath id="b"><rect width="130" height="130"/></clipPath></defs><g id="a" clip-path="url(#b)"><g transform="translate(17978 9791)"><path d="M64.011,4.4a1.439,1.439,0,1,1-1.35-1.524A1.436,1.436,0,0,1,64.011,4.4" transform="translate(-17972.029 -9790.719)" fill="#fff"/><path d="M72.588,11.272c-1.888-.516-2.935-1.932-2.539-3.491l1.308.358a1.806,1.806,0,0,0,1.515,2.1,1.71,1.71,0,0,0,2.315-1.048c.693-2.536-4.833-2.306-3.878-5.8.424-1.55,1.965-2.259,3.825-1.75,1.794.49,2.7,1.794,2.456,3.263l-1.349-.369a1.765,1.765,0,0,0-1.448-1.858A1.606,1.606,0,0,0,72.574,3.69c-.663,2.427,4.819,2.3,3.869,5.78-.366,1.335-1.819,2.358-3.855,1.8" transform="translate(-17971.166 -9790.855)" fill="#fff"/><path d="M85.05,5.278a4.586,4.586,0,0,1,2.817,4.6L86.49,9.223a3.063,3.063,0,0,0-1.92-2.934,3.536,3.536,0,0,0-4.876,1.974,3.532,3.532,0,0,0,1.571,5.01,3.073,3.073,0,0,0,3.48-.362l1.376.652a4.579,4.579,0,0,1-5.329.708A4.779,4.779,0,0,1,78.52,7.706a4.8,4.8,0,0,1,6.53-2.428" transform="translate(-17970.383 -9790.533)" fill="#fff"/><path d="M94.046,10.756c1.865,1.329,2.014,3,1.09,4.293a2.743,2.743,0,0,1-3.508.929l-.378,4.74-1.239-.884.423-4.587-1.251-.891L86.871,17.6l-1.035-.739,5.651-7.925Zm-.608.853-1.525-1.087-2.139,3L91.3,14.611a1.786,1.786,0,0,0,2.769-.325c.64-.9.553-1.834-.629-2.677" transform="translate(-17969.615 -9790.127)" fill="#fff"/><path d="M95,24.415a4.8,4.8,0,0,1,.125-6.97,4.888,4.888,0,1,1,6.846,6.976A4.794,4.794,0,0,1,95,24.415m.788-.773a3.555,3.555,0,0,0,5.274-.149,3.6,3.6,0,1,0-5.027-5.122,3.554,3.554,0,0,0-.247,5.271" transform="translate(-17968.861 -9789.441)" fill="#fff"/><path d="M107.792,24.283l-7.106,5.03,1.969,2.784-.843.6-2.7-3.821,7.949-5.627Z" transform="translate(-17968.32 -9788.729)" fill="#fff"/><path d="M111.482,29.992l-7.639,4.185,1.639,2.991-.908.5-2.25-4.106,8.545-4.682Z" transform="translate(-17968.006 -9788.18)" fill="#fff"/><path d="M113.4,48.662c-2.906.814-5.2-.589-6.061-3.668l-.818-2.919,9.374-2.627.818,2.918c.863,3.081-.408,5.482-3.313,6.3m-5.051-3.952c.684,2.448,2.414,3.341,4.7,2.7a3.511,3.511,0,0,0,2.668-4.765l-.475-1.695-7.37,2.065Z" transform="translate(-17967.596 -9787.146)" fill="#fff"/><path d="M109.075,55.275a4.977,4.977,0,1,1,5.342,4.491,4.806,4.806,0,0,1-5.342-4.491m1.1-.086a3.883,3.883,0,1,0,3.581-3.882,3.559,3.559,0,0,0-3.581,3.882" transform="translate(-17967.348 -9786.117)" fill="#fff"/><path d="M119.418,61.257l-.192,1.342-8.475.934,7.843,3.493-.2,1.411-8.464,1.049,7.846,3.281-.193,1.357-9.245-4.172.2-1.412,8.081-1.132-7.428-3.434.186-1.4Z" transform="translate(-17967.418 -9785.018)" fill="#fff"/><path d="M114.065,83.591l-9.13-3.414.446-1.191,9.049-2.074L107.171,74.2l.445-1.19,9.129,3.414-.445,1.191-9.036,2.077,7.246,2.71Z" transform="translate(-17967.75 -9783.869)" fill="#fff"/><path d="M104.269,89.828a1.439,1.439,0,1,1,1.991-.42,1.437,1.437,0,0,1-1.991.42" transform="translate(-17967.879 -9782.484)" fill="#fff"/><path d="M94.738,94.147c1.376-1.389,3.124-1.6,4.283-.492l-.954.962A1.8,1.8,0,0,0,95.5,94.9a1.708,1.708,0,0,0-.226,2.528c1.865,1.85,4.381-3.069,6.949-.522,1.14,1.131,1,2.82-.358,4.188-1.307,1.319-2.887,1.464-4.045.53l.982-.991a1.762,1.762,0,0,0,2.328-.345,1.6,1.6,0,0,0,.209-2.43c-1.785-1.771-4.372,3.059-6.931.522-.98-.973-1.157-2.74.328-4.237" transform="translate(-17968.854 -9781.922)" fill="#fff"/><path d="M93.906,107.9a4.586,4.586,0,0,1-5.387.2l1.243-.878a3.067,3.067,0,0,0,3.5-.235,3.877,3.877,0,0,0-4.464-6.308,3.077,3.077,0,0,0-1.392,3.211l-1.244.879a4.582,4.582,0,0,1,2-4.99,4.976,4.976,0,0,1,5.749,8.121" transform="translate(-17969.598 -9781.346)" fill="#fff"/><path d="M84.818,113.12c-2.074.973-3.6.284-4.275-1.157a2.744,2.744,0,0,1,.913-3.514l-3.945-2.655,1.379-.645,3.789,2.619,1.392-.652-1.69-3.6,1.15-.539,4.133,8.813Zm-.445-.948,1.695-.795L84.5,108.039l-1.694.795a1.786,1.786,0,0,0-1.077,2.572c.469,1,1.327,1.383,2.642.766" transform="translate(-17970.43 -9780.941)" fill="#fff"/><path d="M72.323,107.18a4.975,4.975,0,1,1-3.442,6.067,4.805,4.805,0,0,1,3.442-6.067m.285,1.067a3.881,3.881,0,1,0,4.466,2.813,3.557,3.557,0,0,0-4.466-2.813" transform="translate(-17971.291 -9780.549)" fill="#fff"/><path d="M65.951,118.325l-.855-8.661L61.7,110l-.1-1.029,4.656-.46.957,9.689Z" transform="translate(-17971.982 -9780.4)" fill="#fff"/><path d="M59.08,118.673l.147-8.7-3.409-.057.018-1.034,4.68.078-.165,9.737Z" transform="translate(-17972.547 -9780.365)" fill="#fff"/><path d="M42.151,111.123c.728-2.93,3.081-4.234,6.188-3.462l2.944.73-2.347,9.458-2.943-.732c-3.106-.771-4.569-3.064-3.842-5.993m5.936-2.445c-2.47-.614-4.1.451-4.675,2.757a3.514,3.514,0,0,0,2.829,4.676l1.71.425L49.8,109.1Z" transform="translate(-17973.9 -9780.506)" fill="#fff"/><path d="M38.558,104.18a4.973,4.973,0,1,1-6.537,2.426,4.8,4.8,0,0,1,6.537-2.426m-.469,1A3.88,3.88,0,1,0,39.7,110.2a3.555,3.555,0,0,0-1.607-5.026" transform="translate(-17974.922 -9780.873)" fill="#fff"/><path d="M28.6,110.323l-1.074-.83,3.38-7.835-6.916,5.1-1.127-.874L26.137,98,19.4,103.2l-1.083-.839,8.2-5.976,1.127.873-3.01,7.588,6.657-4.764,1.126.853Z" transform="translate(-17976.211 -9781.586)" fill="#fff"/><path d="M11.651,94.609l7.459-6.278.818.973-2.638,8.9,5.93-4.992.819.973-7.459,6.279-.819-.973L18.39,90.6l-5.921,4.982Z" transform="translate(-17976.861 -9782.373)" fill="#fff"/><path d="M10.1,82.774a1.44,1.44,0,1,1-.61,1.943,1.44,1.44,0,0,1,.61-1.943" transform="translate(-17977.09 -9782.932)" fill="#fff"/><path d="M11.728,72.469c.529,1.884-.145,3.509-1.684,3.972l-.368-1.3a1.8,1.8,0,0,0,1.015-2.376c-.333-1.183-1.2-1.694-2.09-1.445-2.528.712.513,5.329-2.971,6.308-1.547.436-2.947-.519-3.47-2.376-.5-1.788.149-3.235,1.533-3.784l.378,1.346a1.764,1.764,0,0,0-.846,2.2,1.6,1.6,0,0,0,2.013,1.378c2.42-.682-.509-5.314,2.962-6.291,1.331-.375,2.956.344,3.528,2.374" transform="translate(-17977.805 -9784.162)" fill="#fff"/><path d="M.222,65.032a4.584,4.584,0,0,1,2.484-4.784l.151,1.515A3.065,3.065,0,0,0,1.334,64.92,3.536,3.536,0,0,0,5.54,68.08a3.532,3.532,0,0,0,3.482-3.929,3.075,3.075,0,0,0-2.1-2.795l-.153-1.515a4.581,4.581,0,0,1,3.356,4.2,4.778,4.778,0,0,1-4.452,5.331A4.8,4.8,0,0,1,.222,65.032" transform="translate(-17977.98 -9785.154)" fill="#fff"/><path d="M.241,54.461c.176-2.285,1.527-3.275,3.116-3.153a2.747,2.747,0,0,1,2.609,2.527l4.257-2.125-.117,1.519L5.957,55.237,5.839,56.77l3.972.306-.1,1.268L0,57.6Zm1.045.08-.144,1.867,3.679.283.144-1.867c.11-1.436-.622-2.123-1.709-2.206s-1.858.474-1.97,1.923" transform="translate(-17978 -9785.99)" fill="#fff"/><path d="M11.493,46.643a4.8,4.8,0,0,1-6.044,3.48A4.889,4.889,0,1,1,7.911,40.66a4.794,4.794,0,0,1,3.582,5.982m-1.068-.279a3.555,3.555,0,0,0-2.841-4.447,3.6,3.6,0,1,0-1.807,6.947,3.555,3.555,0,0,0,4.648-2.5" transform="translate(-17977.834 -9787.047)" fill="#fff"/><path d="M4.9,35.406l7.95,3.527,1.382-3.114.944.419-1.9,4.274-8.9-3.945Z" transform="translate(-17977.572 -9787.541)" fill="#fff"/><path d="M7.96,29.326l7.492,4.424,1.732-2.934.89.526L15.7,35.37,7.313,30.42Z" transform="translate(-17977.285 -9788.135)" fill="#fff"/><path d="M23.013,18.457c2.192,2.077,2.166,4.767-.036,7.091l-2.086,2.2-7.075-6.7,2.086-2.2c2.2-2.324,4.918-2.468,7.111-.391m-.8,6.371c1.75-1.848,1.627-3.792-.1-5.427a3.514,3.514,0,0,0-5.464.158l-1.212,1.279L21,26.107Z" transform="translate(-17976.65 -9789.34)" fill="#fff"/><path d="M30.77,18.727A4.805,4.805,0,0,1,23.9,17.522a4.892,4.892,0,1,1,7.961-5.686,4.8,4.8,0,0,1-1.088,6.891m-.642-.9a3.557,3.557,0,0,0,.672-5.237,3.6,3.6,0,1,0-5.845,4.174,3.559,3.559,0,0,0,5.173,1.063" transform="translate(-17975.762 -9790.055)" fill="#fff"/><path d="M30.8,7.008l1.249-.526,5.166,6.786L36.174,4.745l1.314-.553,5.257,6.718L41.519,2.494l1.261-.532,1.181,10.073-1.314.553L37.517,6.242l.88,8.137-1.3.561Z" transform="translate(-17974.992 -9790.809)" fill="#fff"/><path d="M52.446,0l1.777,9.586-1.25.232-6.44-6.69,1.413,7.622-1.248.232L44.92,1.395l1.249-.232L52.606,7.84,51.2.231Z" transform="translate(-17973.613 -9791)" fill="#fff"/></g></g></svg>