<svg width="28" height="32" viewBox="0 0 28 32" fill="none" xmlns="http://www.w3.org/2000/svg">
<path d="M26 22.7887V5.15795H23.4V6.65844C23.4 6.93978 23.2 7.12735 22.9 7.12735H20C19.7 7.12735 19.5 6.93978 19.5 6.65844V5.15795H16V6.65844C16 6.93978 15.8 7.22113 15.5 7.22113H12.6C12.3 7.22113 12.1 7.03357 12.1 6.75222V5.15795H8.5V6.65844C8.5 6.93978 8.3 7.12735 8.1 7.12735H5.1C5 7.12735 4.9 7.12735 4.8 7.03357C4.7 6.93978 4.6 6.75222 4.6 6.65844V5.15795H2.1V29.7285L19.2 29.8223V24.1017C19.2 23.3514 19.7 22.7887 20.5 22.7887H26ZM28 4.12636V22.695L19.3 31.8855H1.1C0.5 31.8855 0 31.4166 0 30.7601V4.12636C0 3.46989 0.5 2.90721 1.1 2.90721H4.6V1.31293C4.6 0.562685 5.1 0 5.7 0H7.5C8.1 0 8.6 0.562685 8.6 1.31293V3.00099H12.1V1.31293C12.1 0.562685 12.6 0 13.3 0H15C15.7 0 16 0.375124 16 1.12537V3.00099H19.5V1.12537C19.5 0.468904 19.9 0 20.5 0H22.5C23.3 0 23.4 0.375124 23.4 1.03159V2.90721H26.9C27.5 3.00099 28 3.46989 28 4.12636Z" fill="#003300"/>
<path d="M21.2008 10.9727C21.8008 10.9727 22.2008 11.4415 22.2008 12.0979C22.2008 12.7543 21.8008 13.2231 21.2008 13.2231H6.80078C6.20078 13.2231 5.80078 12.7543 5.80078 12.0979C5.80078 11.4415 6.20078 10.9727 6.80078 10.9727H21.2008Z" fill="#003300"/>
<path d="M21.2008 16.8806C21.8008 16.8806 22.2008 17.3495 22.2008 18.0059C22.2008 18.5685 21.8008 19.1311 21.2008 19.1311H6.80078C6.20078 19.1311 5.80078 18.6622 5.80078 18.0059C5.80078 17.4432 6.20078 16.8806 6.80078 16.8806H21.2008Z" fill="#003300"/>
<path d="M15.3008 22.7886C15.7008 22.7886 16.1008 23.1637 16.1008 23.6325V24.1014C16.1008 24.5702 15.7008 24.9453 15.3008 24.9453H6.60078C6.20078 24.9453 5.80078 24.5702 5.80078 24.1014V23.6325C5.80078 23.1637 6.20078 22.7886 6.60078 22.7886H15.3008Z" fill="#003300"/>
</svg>
