<svg width="35" height="38" viewBox="0 0 35 38" fill="none" xmlns="http://www.w3.org/2000/svg">
<g clip-path="url(#clip0_481_134)">
<path d="M32.5007 12.8425C38.4007 18.8425 34.2007 36.7425 17.5007 36.7425C0.800669 36.7425 -3.39933 18.8425 2.50067 12.8425C7.30067 7.94253 12.6007 10.0425 15.8007 10.8425V6.84253C15.8007 6.04253 16.6007 5.34253 17.5007 5.34253C18.5007 5.34253 19.2007 6.04253 19.2007 6.84253V10.7425C22.5007 9.94253 27.8007 8.04253 32.5007 12.8425ZM27.4007 18.4425C27.4007 17.9425 27.0007 17.5425 26.5007 17.5425C26.0007 17.5425 25.6007 17.9425 25.6007 18.4425C25.6007 18.9425 26.0007 19.4425 26.5007 19.4425C27.0007 19.3425 27.4007 18.9425 27.4007 18.4425ZM26.5007 25.0425C26.5007 24.5425 26.1007 24.0425 25.6007 24.0425C25.1007 24.0425 24.6007 24.4425 24.6007 25.0425C24.6007 25.5425 25.0007 25.9425 25.6007 25.9425C26.1007 25.9425 26.5007 25.5425 26.5007 25.0425ZM21.8007 14.6425C21.8007 14.1425 21.4007 13.7425 20.8007 13.7425C20.3007 13.7425 19.9007 14.1425 19.9007 14.6425C19.9007 15.1425 20.3007 15.5425 20.8007 15.5425C21.3007 15.5425 21.8007 15.1425 21.8007 14.6425ZM19.9007 22.2425C19.9007 21.7425 19.5007 21.2425 18.9007 21.2425C18.3007 21.2425 18.0007 21.6425 18.0007 22.2425C18.0007 22.7425 18.4007 23.1425 18.9007 23.1425C19.4007 23.1425 19.9007 22.7425 19.9007 22.2425ZM18.0007 27.8425C18.0007 27.3425 17.6007 26.9425 17.1007 26.9425C16.6007 26.9425 16.2007 27.3425 16.2007 27.8425C16.2007 28.3425 16.6007 28.7425 17.1007 28.7425C17.5007 28.8425 18.0007 28.4425 18.0007 27.8425ZM15.1007 17.4425C15.1007 16.9425 14.7007 16.5425 14.2007 16.5425C13.7007 16.5425 13.3007 16.9425 13.3007 17.4425C13.3007 17.9425 13.7007 18.3425 14.2007 18.3425C14.7007 18.4425 15.1007 17.9425 15.1007 17.4425ZM11.4007 23.1425C11.4007 22.6425 11.0007 22.2425 10.5007 22.2425C10.0007 22.2425 9.60067 22.6425 9.60067 23.1425C9.60067 23.6425 10.0007 24.1425 10.5007 24.1425C10.9007 24.0425 11.4007 23.6425 11.4007 23.1425ZM8.50067 15.5425C8.50067 15.0425 8.10067 14.6425 7.50067 14.6425C6.90067 14.6425 6.60067 15.0425 6.60067 15.5425C6.60067 16.0425 7.00067 16.4425 7.50067 16.4425C8.00067 16.4425 8.50067 16.1425 8.50067 15.5425Z" fill="#003300"/>
<path d="M30.5996 1.04255C30.8996 3.04255 29.5996 5.24255 27.0996 6.54255C24.5996 7.84255 21.6996 7.64255 19.9996 6.44255C19.6996 4.44255 20.9996 2.24255 23.4996 0.942554C25.9996 -0.357446 28.7996 -0.257446 30.5996 1.04255Z" fill="#003300"/>
<path d="M26.4988 17.4426C26.9988 17.4426 27.3988 17.8426 27.3988 18.3426C27.3988 18.8426 26.9988 19.3426 26.4988 19.3426C25.9988 19.3426 25.5988 18.9426 25.5988 18.3426C25.4988 17.8426 25.9988 17.4426 26.4988 17.4426Z" fill="white"/>
<path d="M25.5 24.0425C26 24.0425 26.4 24.4425 26.4 25.0425C26.4 25.5425 26 25.9425 25.5 25.9425C25 25.9425 24.5 25.5425 24.5 25.0425C24.6 24.5425 25 24.0425 25.5 24.0425Z" fill="white"/>
<path d="M20.8023 13.6426C21.3023 13.6426 21.8023 14.0426 21.8023 14.5426C21.8023 15.0426 21.4023 15.4426 20.8023 15.4426C20.3023 15.4426 19.9023 15.0426 19.9023 14.5426C19.9023 14.1426 20.3023 13.6426 20.8023 13.6426Z" fill="white"/>
<path d="M18.9 21.2427C19.4 21.2427 19.9 21.6427 19.9 22.2427C19.9 22.7427 19.5 23.1427 18.9 23.1427C18.3 23.1427 18 22.7427 18 22.2427C18 21.6427 18.4 21.2427 18.9 21.2427Z" fill="white"/>
<path d="M17.0016 26.9426C17.5016 26.9426 17.9016 27.3426 17.9016 27.8426C17.9016 28.3426 17.5016 28.7426 17.0016 28.7426C16.5016 28.7426 16.1016 28.3426 16.1016 27.8426C16.1016 27.3426 16.5016 26.9426 17.0016 26.9426Z" fill="white"/>
<path d="M14.2019 16.5425C14.7019 16.5425 15.1019 16.9425 15.1019 17.4425C15.1019 17.9425 14.7019 18.3425 14.2019 18.3425C13.7019 18.3425 13.3019 17.9425 13.3019 17.4425C13.2019 16.9425 13.7019 16.5425 14.2019 16.5425Z" fill="white"/>
<path d="M10.4 22.2427C10.9 22.2427 11.3 22.6427 11.3 23.1427C11.3 23.6427 10.9 24.1427 10.4 24.1427C9.9 24.1427 9.5 23.7427 9.5 23.1427C9.5 22.6427 9.9 22.2427 10.4 22.2427Z" fill="white"/>
<path d="M7.60037 14.6426C8.10037 14.6426 8.60037 15.0426 8.60037 15.5426C8.60037 16.0426 8.20037 16.4426 7.60037 16.4426C7.00037 16.4426 6.70037 16.0426 6.70037 15.5426C6.60037 15.0426 7.10037 14.6426 7.60037 14.6426Z" fill="white"/>
</g>
<defs>
<clipPath id="clip0_481_134">
<rect width="35" height="37" fill="white" transform="translate(0 0.0424805)"/>
</clipPath>
</defs>
</svg>
